<svg xmlns="http://www.w3.org/2000/svg" viewBox="0 0 748.7 172"><path fill-rule="evenodd" clip-rule="evenodd" fill="#575756" d="M473.5 12.8c30.3.5 54.8 25.2 54.8 55.7 0 5.8-.9 11.4-2.5 16.7v.1c-1.4-1.6-3.2-3-5.1-4.1l-1.8-.9c-.6-.3-1.2-.5-1.8-.7-.5-.2-1.1-.3-1.6-.5l-1.3-1.1-.7-.8-8.7-14.2-5.8-4.5-.8-.9-5.5-9-5.4 7.6-2.9 4.1c-.3-.2-.5-.3-.8-.5l-2-4.1L467 22.4l-10.2 19.3-.8 1.1-8.4 8-6.5 14.1-1.3 1.5-10 6.3-1.7 6.9c-.6.2-1.2.4-1.8.7l-1.8.9c-1.7 1-3.2 2.2-4.5 3.5v-.2l-.6.6c-1.6-5.3-2.5-10.9-2.5-16.7 0-26.1 18-48.1 42.3-54.1l-2.7 5.3c-20.4 6.8-35.2 26-35.2 48.7 0 2.7.2 5.4.6 8l1.6-6.7.3-1.4 1.2-.8 10.4-6.5 6.4-13.8.7-1 8.4-8 12.8-25.3 2.9-6.6 3.2 6.5 15.3 34.8 5.1-7.2 3-4.2 2.7 4.4 7.9 12.9 5.8 4.5.8.9L519 73l4.3 3.7c.4-2.7.7-5.5.7-8.3 0-27.4-21.5-49.7-48.5-51.2l-2-4.4zM499 117.5c-7.9 4.2-16.9 6.7-26.4 6.7-9.6 0-18.6-2.4-26.4-6.7 1.4-.9 2.7-1.9 3.8-3 6.8 3.4 14.5 5.2 22.6 5.2 8.1 0 15.8-1.9 22.6-5.2 1.1 1.2 2.4 2.2 3.8 3zm4.1-39L500 67.4l-5.5-4.6-2.3-7.7-5.1 7.3c2.1 2.1 3.4 4.5 5.2 7.7.8 2 2.1 3.7 3.7 5.2.3.3.7.5 1 .8.3.2.7.5 1.1.7 1.6.9 3.3 1.5 5 1.7zm-33.4-21.6l-.5-.7-2.3-22.6-7.5 13-7.3 5.4-8 14.6-9.4 7.1-1.1 4.8c1.4 0 2.8 0 4.3-.1.4.1.8.1 1.3.1h1.3c2.5-.1 4.9-.8 7-2.2.4-.3.8-.6 1.3-.9 3.5-2.8 3.3-4.5 5.5-8.3V67c2.9-5 7.6-8.4 12.8-9.8.9 0 1.8-.2 2.6-.3z"/><path fill-rule="evenodd" clip-rule="evenodd" fill="#007FC8" d="M461.3 96.1c-.8.3-1.7.7-2.5 1.2-3.4 2-5.9 4.9-7.4 8.3-1.4 3.7-4 6.9-7.6 9-8.4 4.8-19 2-23.9-6.4-4.8-8.4-2-19 6.4-23.9 3.5-2 7.4-2.7 11-2.2 3.8.6 7.8-.1 11.4-2.1.8-.5 1.6-1 2.3-1.6.3 7 3.9 13.7 10.3 17.7zm-3.8-27c-4.8 8.4-2 19 6.4 23.9 3.7 2.1 7.8 2.7 11.6 2.1 3.6-.5 7.4.2 10.9 2.2 3.4 2 5.9 4.9 7.4 8.3 1.4 3.7 4 6.9 7.6 9 8.4 4.8 19 2 23.9-6.4 4.8-8.4 2-19-6.4-23.9-3.5-2-7.4-2.7-11-2.2-3.8.6-7.8-.1-11.4-2.1-3.5-2-6-5-7.4-8.5-1.4-3.6-4-6.8-7.6-8.8-8.5-4.8-19.2-2-24 6.4zM498.8 93c-3.6 6.2-1.5 14.1 4.7 17.7 6.2 3.6 14.1 1.5 17.7-4.7 3.6-6.2 1.5-14.1-4.7-17.7-6.2-3.7-14.1-1.5-17.7 4.7zm-37.4-21.7c-3.6 6.2-1.5 14.1 4.7 17.7 6.2 3.6 14.1 1.5 17.7-4.7 3.6-6.2 1.5-14.1-4.7-17.7-6.2-3.6-14.1-1.5-17.7 4.7zm-15 21.7c3.6 6.2 1.5 14.1-4.7 17.7-6.2 3.6-14.1 1.5-17.7-4.7-3.6-6.2-1.5-14.1 4.7-17.7 6.1-3.7 14.1-1.5 17.7 4.7z"/><path fill="#007FC8" d="M29.9 31.6c7.4 0 14.1 3.5 19.1 9.3 5.1-5.7 11.8-9.3 19.1-9.3h17.2v61.3c0 3 .2 5.7.5 7.7H69.6c-2.8 0-3.4-3.4-3.4-12.4v-45c-5 0-7.7 5.4-7.7 15.3v42.1H39.4V58.4c0-10-2.7-15.3-7.7-15.3v57.4H12.6V31.6h17.3zM123.2 31.6s11.5 34.5 11.5 51.7v9.6c0 3 .2 5.7.5 7.7h-16.3c-2.8 0-3.4-3.4-3.4-12.4v-1h-7.7v13.4H88.7V83.3c0-17.2 11.5-51.7 11.5-51.7h23zm-7.7 42.1v-4c0-4-2.1-25.1-3.8-28.5-1.6 3.4-3.8 24.5-3.8 28.5v4h7.6zM157.2 31.6v55.5h17.2v13.4H138V31.6h19.2zM196.4 31.6v55.5h17.2v13.4h-36.4V31.6h19.2zM261.5 42.1V90c0 8.4-6.2 11.5-23 11.5s-23-3.1-23-11.5V42.1c0-8.4 6.2-11.5 23-11.5s23 3.1 23 11.5zm-26.8 4.8v38.3c0 3.1 1.3 4.8 3.8 4.8s3.8-1.7 3.8-4.8V46.9c0-3.1-1.3-4.8-3.8-4.8s-3.8 1.7-3.8 4.8zM286.9 31.6c16.8 0 23 3.1 23 11.5v13.4c0 6.1-3.3 9.4-11.5 10.7 6.4 1.8 12.4 6.9 12.4 12.3v13.4c0 3 .2 5.7.5 7.7H295c-2.8 0-3.4-3.4-3.4-12.4v-9.6c0-2.9-1.2-4.8-3.1-4.8H284v26.8h-19.1v-69h22zM284 62.2h3.8c2.5 0 3.8-1.7 3.8-4.8v-9.6c0-3.1-1.3-4.8-3.8-4.8H284v19.2zM340.5 56.5v-9.6c0-3.1-1.3-4.8-3.8-4.8s-3.8 1.7-3.8 4.8v38.3c0 3.1 1.3 4.8 3.8 4.8s3.8-1.7 3.8-4.8v-9.6h17.2v15.3c0 7.7-5.6 10.5-21.1 10.5-16.8 0-23-3.1-23-11.5V42.1c0-8.4 6.2-11.5 23-11.5 15.4 0 21.1 2.9 21.1 10.5v15.3h-17.2zM394.5 31.6S406 66.1 406 83.3v9.6c0 3 .2 5.7.5 7.7h-16.3c-2.8 0-3.4-3.4-3.4-12.4v-1h-7.7v13.4H360V83.3c0-17.2 11.5-51.7 11.5-51.7h23zm-7.6 42.1v-4c0-4-2.1-25.1-3.8-28.5-1.6 3.4-3.8 24.5-3.8 28.5v4h7.6z"/><path fill="#575756" d="M576.9 31.6V45h-13.4v55.5h-19.1V45H531V31.6h45.9zM625.2 42.1V90c0 8.4-6.2 11.5-23 11.5s-23-3.1-23-11.5V42.1c0-8.4 6.2-11.5 23-11.5s23 3.1 23 11.5zm-26.8 4.8v38.3c0 3.1 1.3 4.8 3.8 4.8s3.8-1.7 3.8-4.8V46.9c0-3.1-1.3-4.8-3.8-4.8-2.4 0-3.8 1.7-3.8 4.8zM647.2 31.6v53.6c0 3.1 1.3 4.8 3.8 4.8s3.8-1.7 3.8-4.8V31.6H674V90c0 8.4-6.2 11.5-23 11.5s-23-3.1-23-11.5V31.6h19.2zM699.4 31.6c16.8 0 23 3.1 23 11.5v13.4c0 6.1-3.3 9.4-11.5 10.7 6.4 1.8 12.4 6.9 12.4 12.3v13.4c0 3 .2 5.7.5 7.7h-16.3c-2.8 0-3.4-3.4-3.4-12.4v-9.6c0-2.9-1.2-4.8-3.1-4.8h-4.6v26.8h-19.1v-69h22.1zm-2.9 30.6h3.8c2.5 0 3.8-1.7 3.8-4.8v-9.6c0-3.1-1.3-4.8-3.8-4.8h-3.8v19.2z"/><g fill="#575756"><path d="M234.3 133.6c6 0 7.9 3.3 7.9 6.7 0 2.3-1.4 4.3-3.7 5.3 2.9.9 4.6 3.2 4.6 6.1 0 3.4-2 7.3-8.2 7.3h-9.6v-25.4h9zm4.8 6.8c0-1.8-.8-3.9-4.6-3.9h-6v7.9h5.2c3.6 0 5.4-1.6 5.4-4zm.9 11.5c0-2.4-1.2-4.7-5.9-4.7h-5.6v8.9h6.8c3.7 0 4.7-2.1 4.7-4.2zM257.5 133.6h3.2V159h-3.2v-25.4zM283.7 145l-4.3 5.3v8.7h-3.2v-25.4h3.2V146l9.9-12.4h3.6l-7 8.8L295 159h-3.7l-7.6-14zM308.5 133.6h15.1v3h-11.9v7.8h7.9v3h-7.9v8.6h12.7v3h-15.9v-25.4zM355.2 133.6h10c6.1 0 8 3.6 8 7.2 0 3-1.7 6.2-5.9 7.1l5.4 11.1h-3.6l-5.2-10.9h-5.6V159h-3.2v-25.4zm10.1 11.6c3.6 0 4.8-2.2 4.8-4.3 0-1.9-1-4.4-4.8-4.4h-6.9v8.6h6.9zM387.8 133.6h15.1v3H391v7.8h7.9v3H391v8.6h12.7v3h-15.9v-25.4zM433.3 159l-11.4-18.1c-.3-.5-.7-1.2-1-1.8 0 .5.1 1.2.1 1.8V159h-3.2v-25.4h3.2l11.2 18.1c.4.6.7 1.2 1.1 1.9 0-.7-.1-1.3-.1-1.8v-18.1h3.2V159h-3.1zM459 159h-3.2v-22.4h-7.1v-3H466v3h-7V159zM490.8 152.8h-10.1l-2.1 6.2h-3.3l9-25.4h2.9l9 25.4H493l-2.2-6.2zm-4.3-12.2c-.3-.7-.7-1.9-.8-2.6-.2.7-.5 1.8-.8 2.6l-3.3 9.4h8.2l-3.3-9.4zM508.5 133.6h3.2V156h12.5v3h-15.6v-25.4z"/></g></svg>